<mxfile host="app.diagrams.net" agent="Mozilla/5.0 (X11; Linux x86_64) AppleWebKit/537.36 (KHTML, like Gecko) Chrome/131.0.0.0 Safari/537.36" version="26.0.2" pages="3">
  <diagram name="Architecture" id="F1tejZDly55zgPq2v-Ex">
    <mxGraphModel dx="1195" dy="661" grid="1" gridSize="10" guides="1" tooltips="1" connect="1" arrows="1" fold="1" page="1" pageScale="1" pageWidth="850" pageHeight="1100" math="0" shadow="0">
      <root>
        <mxCell id="0" />
        <mxCell id="1" parent="0" />
        <mxCell id="RufVIqokz7fm9M4IkpAS-2" value="rusty-kaspa node (=&amp;gt; v0.15.4 10 BPS&amp;nbsp;&lt;div&gt;with payload on transactions activated)&lt;/div&gt;" style="whiteSpace=wrap;html=1;fontSize=14;fontStyle=1" parent="1" vertex="1">
          <mxGeometry x="40" y="80" width="920" height="140" as="geometry" />
        </mxCell>
        <mxCell id="rrDGJ7W3yIeW_5tvvOGc-7" style="edgeStyle=orthogonalEdgeStyle;rounded=0;orthogonalLoop=1;jettySize=auto;html=1;exitX=0.218;exitY=0.993;exitDx=0;exitDy=0;entryX=0.5;entryY=0;entryDx=0;entryDy=0;exitPerimeter=0;" edge="1" parent="1" source="RufVIqokz7fm9M4IkpAS-2" target="rrDGJ7W3yIeW_5tvvOGc-4">
          <mxGeometry relative="1" as="geometry" />
        </mxCell>
        <mxCell id="rrDGJ7W3yIeW_5tvvOGc-4" value="KaspaTalk backend" style="whiteSpace=wrap;html=1;fontSize=14;fontStyle=1" vertex="1" parent="1">
          <mxGeometry x="40" y="390" width="400" height="120" as="geometry" />
        </mxCell>
        <mxCell id="rrDGJ7W3yIeW_5tvvOGc-6" value="KaspaTalk frontend" style="whiteSpace=wrap;html=1;fontSize=14;fontStyle=1" vertex="1" parent="1">
          <mxGeometry x="560" y="590" width="400" height="120" as="geometry" />
        </mxCell>
        <mxCell id="rrDGJ7W3yIeW_5tvvOGc-8" style="edgeStyle=orthogonalEdgeStyle;rounded=0;orthogonalLoop=1;jettySize=auto;html=1;exitX=0.5;exitY=0;exitDx=0;exitDy=0;entryX=0.75;entryY=1;entryDx=0;entryDy=0;" edge="1" parent="1">
          <mxGeometry relative="1" as="geometry">
            <mxPoint x="830" y="590" as="sourcePoint" />
            <mxPoint x="830" y="220" as="targetPoint" />
          </mxGeometry>
        </mxCell>
        <mxCell id="rrDGJ7W3yIeW_5tvvOGc-9" style="edgeStyle=orthogonalEdgeStyle;rounded=0;orthogonalLoop=1;jettySize=auto;html=1;exitX=0.5;exitY=1;exitDx=0;exitDy=0;entryX=0;entryY=0.5;entryDx=0;entryDy=0;" edge="1" parent="1" source="rrDGJ7W3yIeW_5tvvOGc-4" target="rrDGJ7W3yIeW_5tvvOGc-6">
          <mxGeometry relative="1" as="geometry">
            <mxPoint x="190.5" y="420" as="sourcePoint" />
            <mxPoint x="190" y="740" as="targetPoint" />
          </mxGeometry>
        </mxCell>
        <mxCell id="rrDGJ7W3yIeW_5tvvOGc-10" value="&lt;h1 style=&quot;margin-top: 0px;&quot;&gt;&lt;span style=&quot;background-color: transparent; color: light-dark(rgb(0, 0, 0), rgb(255, 255, 255)); font-size: 12px; font-weight: normal;&quot;&gt;RPC (for Testnet-11: port 17120)&lt;/span&gt;&lt;/h1&gt;" style="text;html=1;whiteSpace=wrap;overflow=hidden;rounded=0;verticalAlign=middle;" vertex="1" parent="1">
          <mxGeometry x="150" y="186" width="180" height="30" as="geometry" />
        </mxCell>
        <mxCell id="rrDGJ7W3yIeW_5tvvOGc-11" value="&lt;h1 style=&quot;margin-top: 0px;&quot;&gt;&lt;span style=&quot;background-color: transparent; color: light-dark(rgb(0, 0, 0), rgb(255, 255, 255)); font-size: 12px; font-weight: normal;&quot;&gt;RPC (for Testnet-11: port 17120)&lt;/span&gt;&lt;/h1&gt;" style="text;html=1;whiteSpace=wrap;overflow=hidden;rounded=0;verticalAlign=middle;" vertex="1" parent="1">
          <mxGeometry x="671" y="186" width="180" height="30" as="geometry" />
        </mxCell>
        <mxCell id="rrDGJ7W3yIeW_5tvvOGc-12" value="&lt;h1 style=&quot;margin-top: 0px;&quot;&gt;&lt;span style=&quot;background-color: transparent; color: light-dark(rgb(0, 0, 0), rgb(255, 255, 255)); font-size: 12px; font-weight: normal;&quot;&gt;REST API endpoint (port 3000)&lt;/span&gt;&lt;/h1&gt;" style="text;html=1;whiteSpace=wrap;overflow=hidden;rounded=0;verticalAlign=middle;align=center;" vertex="1" parent="1">
          <mxGeometry x="150" y="478" width="180" height="30" as="geometry" />
        </mxCell>
        <mxCell id="rrDGJ7W3yIeW_5tvvOGc-15" value="All blocks added to the BlockDAG, including all transactions data" style="text;html=1;align=center;verticalAlign=middle;whiteSpace=wrap;rounded=0;" vertex="1" parent="1">
          <mxGeometry x="240" y="272" width="200" height="70" as="geometry" />
        </mxCell>
        <mxCell id="rrDGJ7W3yIeW_5tvvOGc-16" value="Peers list and all messages from/to all peers/addresses" style="text;html=1;align=center;verticalAlign=middle;whiteSpace=wrap;rounded=0;" vertex="1" parent="1">
          <mxGeometry x="281" y="603" width="160" height="50" as="geometry" />
        </mxCell>
        <mxCell id="rrDGJ7W3yIeW_5tvvOGc-17" value="New transaction with a single Output and the message as payload" style="text;html=1;align=center;verticalAlign=middle;whiteSpace=wrap;rounded=0;" vertex="1" parent="1">
          <mxGeometry x="833" y="370" width="137" height="70" as="geometry" />
        </mxCell>
        <mxCell id="rrDGJ7W3yIeW_5tvvOGc-19" style="edgeStyle=orthogonalEdgeStyle;rounded=0;orthogonalLoop=1;jettySize=auto;html=1;exitX=0.5;exitY=0;exitDx=0;exitDy=0;entryX=0.75;entryY=1;entryDx=0;entryDy=0;" edge="1" parent="1">
          <mxGeometry relative="1" as="geometry">
            <mxPoint x="705" y="220" as="sourcePoint" />
            <mxPoint x="705" y="590" as="targetPoint" />
          </mxGeometry>
        </mxCell>
        <mxCell id="rrDGJ7W3yIeW_5tvvOGc-20" value="All spendable UTXOs" style="text;html=1;align=center;verticalAlign=middle;whiteSpace=wrap;rounded=0;" vertex="1" parent="1">
          <mxGeometry x="600" y="370" width="110" height="70" as="geometry" />
        </mxCell>
      </root>
    </mxGraphModel>
  </diagram>
  <diagram id="o1mRrQ4aUZW1VL08FBri" name="Data flow">
    <mxGraphModel dx="2049" dy="1133" grid="1" gridSize="10" guides="1" tooltips="1" connect="1" arrows="1" fold="1" page="1" pageScale="1" pageWidth="850" pageHeight="1100" math="0" shadow="0">
      <root>
        <mxCell id="0" />
        <mxCell id="1" parent="0" />
        <mxCell id="LgiLY7rY6z7mSPJXnP-p-2" value="KaspaTalk backend" style="swimlane;horizontal=0;whiteSpace=wrap;html=1;fontSize=18;startSize=60;" vertex="1" parent="1">
          <mxGeometry x="20" y="360" width="1860" height="320" as="geometry" />
        </mxCell>
        <mxCell id="LgiLY7rY6z7mSPJXnP-p-14" value="Receives all blocks added to the BlockDAG and filters all transactions, exclusively selecting the ones with KaspaTalk prefix (&quot;ktk:&quot;) on payload and storing them in a noSQL database.&amp;nbsp;&lt;div&gt;Every transaction is stored with the following data:&lt;br&gt;- Transaction ID&lt;br&gt;- Message&lt;br&gt;- Block time&lt;br&gt;- Sender address&lt;br&gt;- Receiver address&lt;/div&gt;" style="rounded=0;whiteSpace=wrap;html=1;" vertex="1" parent="LgiLY7rY6z7mSPJXnP-p-2">
          <mxGeometry x="620" y="40" width="280" height="200" as="geometry" />
        </mxCell>
        <mxCell id="LgiLY7rY6z7mSPJXnP-p-16" value="Exposes all data of KaspaTalk transactions via REST API endpoint" style="rounded=0;whiteSpace=wrap;html=1;" vertex="1" parent="LgiLY7rY6z7mSPJXnP-p-2">
          <mxGeometry x="1240" y="100" width="280" height="80" as="geometry" />
        </mxCell>
        <mxCell id="LgiLY7rY6z7mSPJXnP-p-17" style="edgeStyle=orthogonalEdgeStyle;rounded=0;orthogonalLoop=1;jettySize=auto;html=1;exitX=1;exitY=0.5;exitDx=0;exitDy=0;entryX=0;entryY=0.5;entryDx=0;entryDy=0;" edge="1" parent="LgiLY7rY6z7mSPJXnP-p-2" source="LgiLY7rY6z7mSPJXnP-p-14" target="LgiLY7rY6z7mSPJXnP-p-16">
          <mxGeometry relative="1" as="geometry">
            <mxPoint x="770" y="-140" as="sourcePoint" />
            <mxPoint x="970" y="20" as="targetPoint" />
          </mxGeometry>
        </mxCell>
        <mxCell id="LgiLY7rY6z7mSPJXnP-p-3" value="rusty-kaspa node" style="swimlane;horizontal=0;whiteSpace=wrap;html=1;fontSize=18;startSize=60;" vertex="1" parent="1">
          <mxGeometry x="20" y="40" width="1860" height="320" as="geometry" />
        </mxCell>
        <mxCell id="LgiLY7rY6z7mSPJXnP-p-8" value="Fetch all UTXOs on User_1&amp;nbsp;address" style="rounded=0;whiteSpace=wrap;html=1;" vertex="1" parent="LgiLY7rY6z7mSPJXnP-p-3">
          <mxGeometry x="127.5" y="120" width="160" height="50" as="geometry" />
        </mxCell>
        <mxCell id="LgiLY7rY6z7mSPJXnP-p-13" style="edgeStyle=orthogonalEdgeStyle;rounded=0;orthogonalLoop=1;jettySize=auto;html=1;exitX=0.5;exitY=0;exitDx=0;exitDy=0;entryX=0.5;entryY=0;entryDx=0;entryDy=0;" edge="1" parent="LgiLY7rY6z7mSPJXnP-p-3" source="LgiLY7rY6z7mSPJXnP-p-10" target="LgiLY7rY6z7mSPJXnP-p-12">
          <mxGeometry relative="1" as="geometry" />
        </mxCell>
        <mxCell id="LgiLY7rY6z7mSPJXnP-p-10" value="Broadcast transaction to all nodes, have it mined and inserted into one or more blocks" style="rounded=0;whiteSpace=wrap;html=1;" vertex="1" parent="LgiLY7rY6z7mSPJXnP-p-3">
          <mxGeometry x="350" y="100" width="199" height="70" as="geometry" />
        </mxCell>
        <mxCell id="LgiLY7rY6z7mSPJXnP-p-12" value="Broadcast via RPC connection all new blocks added to the BlcokDAG, via BlockAdded subscription" style="rounded=0;whiteSpace=wrap;html=1;" vertex="1" parent="LgiLY7rY6z7mSPJXnP-p-3">
          <mxGeometry x="660.5" y="100" width="199" height="70" as="geometry" />
        </mxCell>
        <mxCell id="LgiLY7rY6z7mSPJXnP-p-5" value="KaspaTalk frontend" style="swimlane;horizontal=0;whiteSpace=wrap;html=1;fontSize=18;startSize=60;" vertex="1" parent="1">
          <mxGeometry x="20" y="680" width="1860" height="320" as="geometry" />
        </mxCell>
        <mxCell id="LgiLY7rY6z7mSPJXnP-p-7" value="User_1 starts a new conversation with User_2 (a new peer) by creating a new transaction (spending a complete UTXO, single input, single output), sending 1 KAS to User_2 address. The transaction contains the message within the payload field" style="rounded=0;whiteSpace=wrap;html=1;spacing=4;" vertex="1" parent="LgiLY7rY6z7mSPJXnP-p-5">
          <mxGeometry x="95" y="70" width="225" height="170" as="geometry" />
        </mxCell>
        <mxCell id="LgiLY7rY6z7mSPJXnP-p-18" value="User_1 visualizes in the User Interface&amp;nbsp;the conversation with User_2 (including sent message)" style="rounded=0;whiteSpace=wrap;html=1;" vertex="1" parent="LgiLY7rY6z7mSPJXnP-p-5">
          <mxGeometry x="1020" y="120" width="280" height="80" as="geometry" />
        </mxCell>
        <mxCell id="LgiLY7rY6z7mSPJXnP-p-20" value="User_2 visualizes in the User Interface&amp;nbsp;the conversation with User_1 (including received message)" style="rounded=0;whiteSpace=wrap;html=1;" vertex="1" parent="LgiLY7rY6z7mSPJXnP-p-5">
          <mxGeometry x="1460" y="120" width="280" height="80" as="geometry" />
        </mxCell>
        <mxCell id="LgiLY7rY6z7mSPJXnP-p-9" style="edgeStyle=orthogonalEdgeStyle;rounded=0;orthogonalLoop=1;jettySize=auto;html=1;" edge="1" parent="1" source="LgiLY7rY6z7mSPJXnP-p-8" target="LgiLY7rY6z7mSPJXnP-p-7">
          <mxGeometry relative="1" as="geometry" />
        </mxCell>
        <mxCell id="LgiLY7rY6z7mSPJXnP-p-11" style="edgeStyle=orthogonalEdgeStyle;rounded=0;orthogonalLoop=1;jettySize=auto;html=1;exitX=1;exitY=0.5;exitDx=0;exitDy=0;entryX=0.5;entryY=1;entryDx=0;entryDy=0;" edge="1" parent="1" source="LgiLY7rY6z7mSPJXnP-p-7" target="LgiLY7rY6z7mSPJXnP-p-10">
          <mxGeometry relative="1" as="geometry">
            <mxPoint x="480" y="450" as="targetPoint" />
          </mxGeometry>
        </mxCell>
        <mxCell id="LgiLY7rY6z7mSPJXnP-p-15" style="edgeStyle=orthogonalEdgeStyle;rounded=0;orthogonalLoop=1;jettySize=auto;html=1;" edge="1" parent="1" source="LgiLY7rY6z7mSPJXnP-p-12" target="LgiLY7rY6z7mSPJXnP-p-14">
          <mxGeometry relative="1" as="geometry" />
        </mxCell>
        <mxCell id="LgiLY7rY6z7mSPJXnP-p-19" style="edgeStyle=orthogonalEdgeStyle;rounded=0;orthogonalLoop=1;jettySize=auto;html=1;entryX=0.5;entryY=0;entryDx=0;entryDy=0;entryPerimeter=0;exitX=0.5;exitY=1;exitDx=0;exitDy=0;" edge="1" parent="1" source="LgiLY7rY6z7mSPJXnP-p-16" target="LgiLY7rY6z7mSPJXnP-p-18">
          <mxGeometry relative="1" as="geometry">
            <mxPoint x="1230" y="600" as="sourcePoint" />
            <mxPoint x="1050" y="510" as="targetPoint" />
            <Array as="points">
              <mxPoint x="1400" y="640" />
              <mxPoint x="1180" y="640" />
            </Array>
          </mxGeometry>
        </mxCell>
        <mxCell id="LgiLY7rY6z7mSPJXnP-p-23" style="edgeStyle=orthogonalEdgeStyle;rounded=0;orthogonalLoop=1;jettySize=auto;html=1;exitX=0.5;exitY=1;exitDx=0;exitDy=0;entryX=0.5;entryY=0;entryDx=0;entryDy=0;" edge="1" parent="1" source="LgiLY7rY6z7mSPJXnP-p-16" target="LgiLY7rY6z7mSPJXnP-p-20">
          <mxGeometry relative="1" as="geometry">
            <Array as="points">
              <mxPoint x="1400" y="640" />
              <mxPoint x="1620" y="640" />
            </Array>
          </mxGeometry>
        </mxCell>
      </root>
    </mxGraphModel>
  </diagram>
  <diagram id="dCDTY5te6mNeuxzXYGUP" name="Scenarios">
    <mxGraphModel dx="1434" dy="793" grid="1" gridSize="10" guides="1" tooltips="1" connect="1" arrows="1" fold="1" page="1" pageScale="1" pageWidth="850" pageHeight="1100" math="0" shadow="0">
      <root>
        <mxCell id="0" />
        <mxCell id="1" parent="0" />
        <mxCell id="RJVbZ-DVJH2_k4jmK_ra-4" value="Send 1 KAS UTXO to peer&#39;s address" style="swimlane;whiteSpace=wrap;html=1;labelBackgroundColor=default;" parent="1" vertex="1">
          <mxGeometry x="20" y="50" width="810" height="510" as="geometry">
            <mxRectangle x="20" y="50" width="140" height="30" as="alternateBounds" />
          </mxGeometry>
        </mxCell>
        <mxCell id="RJVbZ-DVJH2_k4jmK_ra-11" style="edgeStyle=orthogonalEdgeStyle;rounded=0;orthogonalLoop=1;jettySize=auto;html=1;exitX=1;exitY=0.25;exitDx=0;exitDy=0;entryX=0;entryY=0.25;entryDx=0;entryDy=0;" parent="RJVbZ-DVJH2_k4jmK_ra-4" source="RJVbZ-DVJH2_k4jmK_ra-2" target="RJVbZ-DVJH2_k4jmK_ra-3" edge="1">
          <mxGeometry relative="1" as="geometry" />
        </mxCell>
        <mxCell id="RJVbZ-DVJH2_k4jmK_ra-13" style="edgeStyle=orthogonalEdgeStyle;rounded=0;orthogonalLoop=1;jettySize=auto;html=1;exitX=0.5;exitY=1;exitDx=0;exitDy=0;entryX=0;entryY=0.5;entryDx=0;entryDy=0;" parent="RJVbZ-DVJH2_k4jmK_ra-4" source="RJVbZ-DVJH2_k4jmK_ra-2" target="RJVbZ-DVJH2_k4jmK_ra-12" edge="1">
          <mxGeometry relative="1" as="geometry" />
        </mxCell>
        <mxCell id="RJVbZ-DVJH2_k4jmK_ra-2" value="User #1" style="rounded=0;whiteSpace=wrap;html=1;" parent="RJVbZ-DVJH2_k4jmK_ra-4" vertex="1">
          <mxGeometry x="60" y="57" width="199" height="80" as="geometry" />
        </mxCell>
        <mxCell id="RJVbZ-DVJH2_k4jmK_ra-10" style="edgeStyle=orthogonalEdgeStyle;rounded=0;orthogonalLoop=1;jettySize=auto;html=1;exitX=0;exitY=0.75;exitDx=0;exitDy=0;entryX=1;entryY=0.75;entryDx=0;entryDy=0;" parent="RJVbZ-DVJH2_k4jmK_ra-4" source="RJVbZ-DVJH2_k4jmK_ra-3" target="RJVbZ-DVJH2_k4jmK_ra-2" edge="1">
          <mxGeometry relative="1" as="geometry" />
        </mxCell>
        <mxCell id="RJVbZ-DVJH2_k4jmK_ra-17" style="edgeStyle=orthogonalEdgeStyle;rounded=0;orthogonalLoop=1;jettySize=auto;html=1;exitX=0.5;exitY=1;exitDx=0;exitDy=0;entryX=1;entryY=0.5;entryDx=0;entryDy=0;" parent="RJVbZ-DVJH2_k4jmK_ra-4" source="RJVbZ-DVJH2_k4jmK_ra-3" target="RJVbZ-DVJH2_k4jmK_ra-12" edge="1">
          <mxGeometry relative="1" as="geometry" />
        </mxCell>
        <mxCell id="RJVbZ-DVJH2_k4jmK_ra-3" value="User #2" style="rounded=0;whiteSpace=wrap;html=1;" parent="RJVbZ-DVJH2_k4jmK_ra-4" vertex="1">
          <mxGeometry x="540" y="57" width="199" height="80" as="geometry" />
        </mxCell>
        <mxCell id="RJVbZ-DVJH2_k4jmK_ra-6" value="&lt;b&gt;PROs:&lt;/b&gt;&lt;br&gt;1. Minimum fee costs by moving entire UTXOs&lt;div&gt;2. Simple architecture (only standard tx)&lt;/div&gt;&lt;div&gt;3. Lower values can be sent (with higher fees)&lt;/div&gt;&lt;div&gt;4. Backend can only index transactions received by user address&lt;/div&gt;&lt;div&gt;&lt;br&gt;&lt;/div&gt;" style="rounded=0;whiteSpace=wrap;html=1;align=left;" parent="RJVbZ-DVJH2_k4jmK_ra-4" vertex="1">
          <mxGeometry x="60" y="350" width="320" height="140" as="geometry" />
        </mxCell>
        <mxCell id="RJVbZ-DVJH2_k4jmK_ra-7" value="&lt;b&gt;CONs:&lt;/b&gt;&lt;br&gt;1. Risk of losing coins due to bad peer&lt;div&gt;2. It&#39;s necessary to prepare many 1 KAS UTXOs in each address&lt;/div&gt;&lt;div&gt;3. User wallet have to be organized with specific&amp;nbsp; requirements on UTXO handling (ie. 30 single 1 KAS UTXOs)&amp;nbsp;&lt;/div&gt;&lt;div&gt;&lt;br&gt;&lt;/div&gt;" style="rounded=0;whiteSpace=wrap;html=1;align=left;spacingLeft=0;" parent="RJVbZ-DVJH2_k4jmK_ra-4" vertex="1">
          <mxGeometry x="420" y="350" width="320" height="140" as="geometry" />
        </mxCell>
        <mxCell id="RJVbZ-DVJH2_k4jmK_ra-8" value="1 UTXO = 1 KAS" style="text;html=1;align=center;verticalAlign=middle;whiteSpace=wrap;rounded=0;" parent="RJVbZ-DVJH2_k4jmK_ra-4" vertex="1">
          <mxGeometry x="341" y="47" width="110" height="30" as="geometry" />
        </mxCell>
        <mxCell id="RJVbZ-DVJH2_k4jmK_ra-9" value="1 UTXO = 0.999999 KAS" style="text;html=1;align=center;verticalAlign=middle;whiteSpace=wrap;rounded=0;" parent="RJVbZ-DVJH2_k4jmK_ra-4" vertex="1">
          <mxGeometry x="326" y="121" width="140" height="28.18" as="geometry" />
        </mxCell>
        <mxCell id="RJVbZ-DVJH2_k4jmK_ra-12" value="Miner" style="rounded=0;whiteSpace=wrap;html=1;" parent="RJVbZ-DVJH2_k4jmK_ra-4" vertex="1">
          <mxGeometry x="296.5" y="202" width="199" height="80" as="geometry" />
        </mxCell>
        <mxCell id="RJVbZ-DVJH2_k4jmK_ra-14" value="Fees" style="text;html=1;align=center;verticalAlign=middle;whiteSpace=wrap;rounded=0;" parent="RJVbZ-DVJH2_k4jmK_ra-4" vertex="1">
          <mxGeometry x="184" y="247" width="70" height="28.18" as="geometry" />
        </mxCell>
        <mxCell id="RJVbZ-DVJH2_k4jmK_ra-18" value="Fees" style="text;html=1;align=center;verticalAlign=middle;whiteSpace=wrap;rounded=0;" parent="RJVbZ-DVJH2_k4jmK_ra-4" vertex="1">
          <mxGeometry x="539" y="247" width="70" height="28.18" as="geometry" />
        </mxCell>
        <mxCell id="RJVbZ-DVJH2_k4jmK_ra-19" value="Send UTXO to user address" style="swimlane;whiteSpace=wrap;html=1;labelBackgroundColor=default;" parent="1" vertex="1">
          <mxGeometry x="20" y="600" width="800" height="600" as="geometry">
            <mxRectangle x="20" y="50" width="140" height="30" as="alternateBounds" />
          </mxGeometry>
        </mxCell>
        <mxCell id="RJVbZ-DVJH2_k4jmK_ra-20" style="edgeStyle=orthogonalEdgeStyle;rounded=0;orthogonalLoop=1;jettySize=auto;html=1;exitX=0.5;exitY=0;exitDx=0;exitDy=0;entryX=1;entryY=0.25;entryDx=0;entryDy=0;" parent="RJVbZ-DVJH2_k4jmK_ra-19" source="RJVbZ-DVJH2_k4jmK_ra-22" target="RJVbZ-DVJH2_k4jmK_ra-22" edge="1">
          <mxGeometry relative="1" as="geometry" />
        </mxCell>
        <mxCell id="RJVbZ-DVJH2_k4jmK_ra-21" style="edgeStyle=orthogonalEdgeStyle;rounded=0;orthogonalLoop=1;jettySize=auto;html=1;exitX=0.5;exitY=1;exitDx=0;exitDy=0;entryX=0;entryY=0.5;entryDx=0;entryDy=0;" parent="RJVbZ-DVJH2_k4jmK_ra-19" source="RJVbZ-DVJH2_k4jmK_ra-22" target="RJVbZ-DVJH2_k4jmK_ra-30" edge="1">
          <mxGeometry relative="1" as="geometry" />
        </mxCell>
        <mxCell id="RJVbZ-DVJH2_k4jmK_ra-22" value="User #1" style="rounded=0;whiteSpace=wrap;html=1;" parent="RJVbZ-DVJH2_k4jmK_ra-19" vertex="1">
          <mxGeometry x="20" y="90" width="199" height="80" as="geometry" />
        </mxCell>
        <mxCell id="RJVbZ-DVJH2_k4jmK_ra-23" style="edgeStyle=orthogonalEdgeStyle;rounded=0;orthogonalLoop=1;jettySize=auto;html=1;exitX=0.5;exitY=0;exitDx=0;exitDy=0;entryX=0;entryY=0.25;entryDx=0;entryDy=0;" parent="RJVbZ-DVJH2_k4jmK_ra-19" source="RJVbZ-DVJH2_k4jmK_ra-25" target="RJVbZ-DVJH2_k4jmK_ra-25" edge="1">
          <mxGeometry relative="1" as="geometry">
            <mxPoint x="570" y="113" as="targetPoint" />
            <Array as="points">
              <mxPoint x="680" y="70" />
              <mxPoint x="560" y="70" />
              <mxPoint x="560" y="110" />
            </Array>
          </mxGeometry>
        </mxCell>
        <mxCell id="RJVbZ-DVJH2_k4jmK_ra-24" style="edgeStyle=orthogonalEdgeStyle;rounded=0;orthogonalLoop=1;jettySize=auto;html=1;exitX=0.5;exitY=1;exitDx=0;exitDy=0;entryX=1;entryY=0.5;entryDx=0;entryDy=0;" parent="RJVbZ-DVJH2_k4jmK_ra-19" source="RJVbZ-DVJH2_k4jmK_ra-25" target="RJVbZ-DVJH2_k4jmK_ra-30" edge="1">
          <mxGeometry relative="1" as="geometry" />
        </mxCell>
        <mxCell id="RJVbZ-DVJH2_k4jmK_ra-25" value="User #2" style="rounded=0;whiteSpace=wrap;html=1;" parent="RJVbZ-DVJH2_k4jmK_ra-19" vertex="1">
          <mxGeometry x="580" y="90" width="199" height="80" as="geometry" />
        </mxCell>
        <mxCell id="RJVbZ-DVJH2_k4jmK_ra-26" value="&lt;b&gt;PROs:&lt;/b&gt;&lt;br&gt;1. Minimum fee costs by moving entire UTXOs&lt;div&gt;2. Simple architecture (only standard tx)&lt;/div&gt;&lt;div&gt;3. Any value can be sent with minimum fees&lt;/div&gt;&lt;div&gt;4. One UTXO is enough for all user&#39;s conversations&lt;br&gt;5. User wallet can operate with any amount, with no special requirements on UTXO handling&lt;/div&gt;" style="rounded=0;whiteSpace=wrap;html=1;align=left;" parent="RJVbZ-DVJH2_k4jmK_ra-19" vertex="1">
          <mxGeometry x="60" y="380" width="320" height="140" as="geometry" />
        </mxCell>
        <mxCell id="RJVbZ-DVJH2_k4jmK_ra-27" value="&lt;b&gt;CONs:&lt;/b&gt;&lt;br&gt;1.&amp;nbsp;&lt;span style=&quot;background-color: transparent; color: light-dark(rgb(0, 0, 0), rgb(255, 255, 255));&quot;&gt;Backend have to index all transactions&lt;br&gt;2. Potentially harmful content is stored on anyone&#39;s backend&lt;/span&gt;" style="rounded=0;whiteSpace=wrap;html=1;align=left;spacingLeft=0;" parent="RJVbZ-DVJH2_k4jmK_ra-19" vertex="1">
          <mxGeometry x="420" y="380" width="320" height="140" as="geometry" />
        </mxCell>
        <mxCell id="RJVbZ-DVJH2_k4jmK_ra-28" value="1 UTXO = n KAS" style="text;html=1;align=center;verticalAlign=middle;whiteSpace=wrap;rounded=0;" parent="RJVbZ-DVJH2_k4jmK_ra-19" vertex="1">
          <mxGeometry x="240" y="73" width="110" height="30" as="geometry" />
        </mxCell>
        <mxCell id="RJVbZ-DVJH2_k4jmK_ra-30" value="Miner" style="rounded=0;whiteSpace=wrap;html=1;" parent="RJVbZ-DVJH2_k4jmK_ra-19" vertex="1">
          <mxGeometry x="296.5" y="235" width="199" height="80" as="geometry" />
        </mxCell>
        <mxCell id="RJVbZ-DVJH2_k4jmK_ra-31" value="Fees" style="text;html=1;align=center;verticalAlign=middle;whiteSpace=wrap;rounded=0;" parent="RJVbZ-DVJH2_k4jmK_ra-19" vertex="1">
          <mxGeometry x="184" y="280" width="70" height="28.18" as="geometry" />
        </mxCell>
        <mxCell id="RJVbZ-DVJH2_k4jmK_ra-32" value="Fees" style="text;html=1;align=center;verticalAlign=middle;whiteSpace=wrap;rounded=0;" parent="RJVbZ-DVJH2_k4jmK_ra-19" vertex="1">
          <mxGeometry x="539" y="280" width="70" height="28.18" as="geometry" />
        </mxCell>
        <mxCell id="RJVbZ-DVJH2_k4jmK_ra-35" value="1 UTXO = n KAS" style="text;html=1;align=center;verticalAlign=middle;whiteSpace=wrap;rounded=0;" parent="RJVbZ-DVJH2_k4jmK_ra-19" vertex="1">
          <mxGeometry x="450" y="73" width="110" height="30" as="geometry" />
        </mxCell>
        <mxCell id="RJVbZ-DVJH2_k4jmK_ra-36" value="Spend KIP-10 UTXO, adding few sompi" style="swimlane;whiteSpace=wrap;html=1;labelBackgroundColor=default;" parent="1" vertex="1">
          <mxGeometry x="20" y="1230" width="800" height="664" as="geometry">
            <mxRectangle x="20" y="50" width="140" height="30" as="alternateBounds" />
          </mxGeometry>
        </mxCell>
        <mxCell id="RJVbZ-DVJH2_k4jmK_ra-38" style="edgeStyle=orthogonalEdgeStyle;rounded=0;orthogonalLoop=1;jettySize=auto;html=1;exitX=0.5;exitY=1;exitDx=0;exitDy=0;entryX=0;entryY=0.5;entryDx=0;entryDy=0;" parent="RJVbZ-DVJH2_k4jmK_ra-36" source="RJVbZ-DVJH2_k4jmK_ra-39" target="RJVbZ-DVJH2_k4jmK_ra-46" edge="1">
          <mxGeometry relative="1" as="geometry" />
        </mxCell>
        <mxCell id="RJVbZ-DVJH2_k4jmK_ra-51" style="edgeStyle=orthogonalEdgeStyle;rounded=0;orthogonalLoop=1;jettySize=auto;html=1;exitX=1;exitY=0.75;exitDx=0;exitDy=0;entryX=0;entryY=0.75;entryDx=0;entryDy=0;" parent="RJVbZ-DVJH2_k4jmK_ra-36" edge="1">
          <mxGeometry relative="1" as="geometry">
            <mxPoint x="219" y="170" as="sourcePoint" />
            <mxPoint x="340" y="170" as="targetPoint" />
          </mxGeometry>
        </mxCell>
        <mxCell id="RJVbZ-DVJH2_k4jmK_ra-53" style="edgeStyle=orthogonalEdgeStyle;rounded=0;orthogonalLoop=1;jettySize=auto;html=1;exitX=1;exitY=0.25;exitDx=0;exitDy=0;entryX=0;entryY=0.25;entryDx=0;entryDy=0;" parent="RJVbZ-DVJH2_k4jmK_ra-36" edge="1">
          <mxGeometry relative="1" as="geometry">
            <mxPoint x="219" y="210" as="sourcePoint" />
            <mxPoint x="340" y="210" as="targetPoint" />
          </mxGeometry>
        </mxCell>
        <mxCell id="RJVbZ-DVJH2_k4jmK_ra-39" value="User #1&lt;br&gt;(opens the conversation)" style="rounded=0;whiteSpace=wrap;html=1;" parent="RJVbZ-DVJH2_k4jmK_ra-36" vertex="1">
          <mxGeometry x="20" y="150" width="199" height="80" as="geometry" />
        </mxCell>
        <mxCell id="RJVbZ-DVJH2_k4jmK_ra-41" style="edgeStyle=orthogonalEdgeStyle;rounded=0;orthogonalLoop=1;jettySize=auto;html=1;exitX=0.5;exitY=1;exitDx=0;exitDy=0;entryX=1;entryY=0.5;entryDx=0;entryDy=0;" parent="RJVbZ-DVJH2_k4jmK_ra-36" source="RJVbZ-DVJH2_k4jmK_ra-42" target="RJVbZ-DVJH2_k4jmK_ra-46" edge="1">
          <mxGeometry relative="1" as="geometry" />
        </mxCell>
        <mxCell id="RJVbZ-DVJH2_k4jmK_ra-54" style="edgeStyle=orthogonalEdgeStyle;rounded=0;orthogonalLoop=1;jettySize=auto;html=1;exitX=0;exitY=0.25;exitDx=0;exitDy=0;entryX=1;entryY=0.25;entryDx=0;entryDy=0;" parent="RJVbZ-DVJH2_k4jmK_ra-36" edge="1">
          <mxGeometry relative="1" as="geometry">
            <mxPoint x="580" y="210" as="sourcePoint" />
            <mxPoint x="460" y="210" as="targetPoint" />
          </mxGeometry>
        </mxCell>
        <mxCell id="RJVbZ-DVJH2_k4jmK_ra-42" value="User #2" style="rounded=0;whiteSpace=wrap;html=1;" parent="RJVbZ-DVJH2_k4jmK_ra-36" vertex="1">
          <mxGeometry x="580" y="150" width="199" height="80" as="geometry" />
        </mxCell>
        <mxCell id="RJVbZ-DVJH2_k4jmK_ra-43" value="&lt;b&gt;PROs:&lt;/b&gt;&lt;br&gt;1. Low costs&lt;div&gt;&lt;span style=&quot;background-color: transparent; color: light-dark(rgb(0, 0, 0), rgb(255, 255, 255));&quot;&gt;2. One shared UTXO is enough for each conversation&lt;br&gt;3.&amp;nbsp;&lt;/span&gt;&lt;span style=&quot;background-color: transparent; color: light-dark(rgb(0, 0, 0), rgb(255, 255, 255));&quot;&gt;Backend can index only specific P2SH transactions, reading &quot;sender&quot; address from funding input&lt;br&gt;4. User wallet can operate with any amount, with no special requirements on UTXO handling&lt;/span&gt;&lt;/div&gt;" style="rounded=0;whiteSpace=wrap;html=1;align=left;" parent="RJVbZ-DVJH2_k4jmK_ra-36" vertex="1">
          <mxGeometry x="60" y="450" width="320" height="140" as="geometry" />
        </mxCell>
        <mxCell id="RJVbZ-DVJH2_k4jmK_ra-44" value="&lt;b&gt;CONs:&lt;/b&gt;&lt;br&gt;&lt;span style=&quot;background-color: transparent; color: light-dark(rgb(0, 0, 0), rgb(255, 255, 255));&quot;&gt;1. More complex architecture (non standard transactions)&lt;br&gt;2. Potentially higher fees (TBA)&lt;br&gt;3. Tx collisions: User #1 steals UTXO while User #2 would like to send a message&lt;/span&gt;" style="rounded=0;whiteSpace=wrap;html=1;align=left;spacingLeft=0;" parent="RJVbZ-DVJH2_k4jmK_ra-36" vertex="1">
          <mxGeometry x="420" y="450" width="320" height="140" as="geometry" />
        </mxCell>
        <mxCell id="RJVbZ-DVJH2_k4jmK_ra-45" value="Funding UTXO&lt;br&gt;0.00001 KAS" style="text;html=1;align=center;verticalAlign=middle;whiteSpace=wrap;rounded=0;" parent="RJVbZ-DVJH2_k4jmK_ra-36" vertex="1">
          <mxGeometry x="222" y="216" width="110" height="30" as="geometry" />
        </mxCell>
        <mxCell id="RJVbZ-DVJH2_k4jmK_ra-46" value="Miner" style="rounded=0;whiteSpace=wrap;html=1;" parent="RJVbZ-DVJH2_k4jmK_ra-36" vertex="1">
          <mxGeometry x="296.5" y="305" width="199" height="80" as="geometry" />
        </mxCell>
        <mxCell id="RJVbZ-DVJH2_k4jmK_ra-47" value="Fees" style="text;html=1;align=center;verticalAlign=middle;whiteSpace=wrap;rounded=0;" parent="RJVbZ-DVJH2_k4jmK_ra-36" vertex="1">
          <mxGeometry x="184" y="350" width="70" height="28.18" as="geometry" />
        </mxCell>
        <mxCell id="RJVbZ-DVJH2_k4jmK_ra-48" value="Fees" style="text;html=1;align=center;verticalAlign=middle;whiteSpace=wrap;rounded=0;" parent="RJVbZ-DVJH2_k4jmK_ra-36" vertex="1">
          <mxGeometry x="539" y="350" width="70" height="28.18" as="geometry" />
        </mxCell>
        <mxCell id="RJVbZ-DVJH2_k4jmK_ra-50" value="P2SH" style="rounded=0;whiteSpace=wrap;html=1;" parent="RJVbZ-DVJH2_k4jmK_ra-36" vertex="1">
          <mxGeometry x="340" y="150" width="120" height="80" as="geometry" />
        </mxCell>
        <mxCell id="RJVbZ-DVJH2_k4jmK_ra-52" value="Shared UTXO creation&amp;nbsp;&lt;br&gt;1 UTXO = n KAS" style="text;html=1;align=center;verticalAlign=middle;whiteSpace=wrap;rounded=0;" parent="RJVbZ-DVJH2_k4jmK_ra-36" vertex="1">
          <mxGeometry x="219" y="120" width="110" height="45" as="geometry" />
        </mxCell>
        <mxCell id="RJVbZ-DVJH2_k4jmK_ra-55" value="Funding UTXO&lt;br&gt;0.00001 KAS" style="text;html=1;align=center;verticalAlign=middle;whiteSpace=wrap;rounded=0;" parent="RJVbZ-DVJH2_k4jmK_ra-36" vertex="1">
          <mxGeometry x="469" y="216" width="110" height="30" as="geometry" />
        </mxCell>
        <mxCell id="xXwPQbrG5vcirGDcfRdf-1" style="edgeStyle=orthogonalEdgeStyle;rounded=0;orthogonalLoop=1;jettySize=auto;html=1;exitX=0.75;exitY=0;exitDx=0;exitDy=0;entryX=0.25;entryY=0;entryDx=0;entryDy=0;" edge="1" parent="RJVbZ-DVJH2_k4jmK_ra-36" source="RJVbZ-DVJH2_k4jmK_ra-39" target="RJVbZ-DVJH2_k4jmK_ra-39">
          <mxGeometry relative="1" as="geometry">
            <mxPoint x="220" y="110" as="sourcePoint" />
            <Array as="points">
              <mxPoint x="169" y="100" />
              <mxPoint x="70" y="100" />
            </Array>
          </mxGeometry>
        </mxCell>
        <mxCell id="xXwPQbrG5vcirGDcfRdf-2" style="edgeStyle=orthogonalEdgeStyle;rounded=0;orthogonalLoop=1;jettySize=auto;html=1;exitX=0.25;exitY=0;exitDx=0;exitDy=0;entryX=0.75;entryY=0;entryDx=0;entryDy=0;" edge="1" parent="RJVbZ-DVJH2_k4jmK_ra-36" source="RJVbZ-DVJH2_k4jmK_ra-42" target="RJVbZ-DVJH2_k4jmK_ra-42">
          <mxGeometry relative="1" as="geometry">
            <mxPoint x="630" y="150" as="sourcePoint" />
            <mxPoint x="729" y="150" as="targetPoint" />
            <Array as="points">
              <mxPoint x="630" y="100" />
              <mxPoint x="729" y="100" />
            </Array>
          </mxGeometry>
        </mxCell>
        <mxCell id="xXwPQbrG5vcirGDcfRdf-3" value="Change" style="text;html=1;align=center;verticalAlign=middle;whiteSpace=wrap;rounded=0;" vertex="1" parent="RJVbZ-DVJH2_k4jmK_ra-36">
          <mxGeometry x="64.5" y="70" width="110" height="30" as="geometry" />
        </mxCell>
        <mxCell id="xXwPQbrG5vcirGDcfRdf-4" value="Change" style="text;html=1;align=center;verticalAlign=middle;whiteSpace=wrap;rounded=0;" vertex="1" parent="RJVbZ-DVJH2_k4jmK_ra-36">
          <mxGeometry x="624" y="70" width="110" height="30" as="geometry" />
        </mxCell>
      </root>
    </mxGraphModel>
  </diagram>
</mxfile>
